#!OML:ASF F:\VICON\USERDATA\INSTALL\rory3\rory3.ASF
:FULLY-SPECIFIED
:DEGREES
82
root 0.7364602309171738 18.611225229874762 16.104172725548757 4.902841934079531 -7.002960629522176 -0.8342608020029563
lfemur 12.422741079952612 -6.543651518348751 -28.022823269751793
ltibia 47.42798553743434
lfoot 27.646795574131385 -22.543936216135258
ltoes -22.108346481886976
rfemur -34.50813461737404 -3.118929014374077 27.562328428931018
rtibia 14.903739436506285
rfoot 8.035837355775614 -3.163577209514756
rtoes -15.57969214183574
lowerback nan -1.406987037379397 -0.8538604147965012
upperback 0.011473607313898238 0.10928291406006552 -0.19441711050173738
thorax -6.81708088889318 -0.4568553499460434 2.5589957772293856
lowerneck -18.74875314280399 -2.598107425494429 -2.799103508137737
upperneck 8.549582891929576 -2.5004065177524724 2.9379206114829213
head 5.548685162657589 -1.0558696570970014 1.3302919008469096
lclavicle -2.5685659231018943e-14 -5.7884227741883006e-15
lhumerus -48.24371391272904 -1.7589001621876292 84.04703301942948
lradius 121.55000756943026
lwrist 35.28451706197301
lhand -24.225633047715856 2.9159196274589316
lfingers nan
lthumb 2.8195070702919334 33.175294124401894
rclavicle -2.3577253226917242e-14 -7.392637535024046e-15
rhumerus -63.469097396620825 -2.0961760032198793 -90.05642143785273
rradius 112.52485060645711
rwrist -14.611685699393037
rhand -24.482777124759355 nan
rfingers nan
rthumb 1.7198619202811232 15.282382187490237
83
root 0.7537370315035186 18.54300529954486 16.87895899224599 4.502443930193052 -7.267241444095244 -1.078905134977117
lfemur 11.477981241469294 -5.802128508915441 -27.460397879349074
ltibia 51.81053908398232
lfoot 28.704498434881867 -22.207552114233586
ltoes -17.980465300040667
rfemur -33.385026957905836 -3.261309154676041 28.209518311776296
rtibia 15.304977850155396
rfoot 8.576007121094989 -2.844579689388806
rtoes -15.627814061446031
lowerback nan -1.3332132768590044 -0.660833279039597
upperback 0.21431996594146574 0.3638255460527482 -0.18548824452175672
thorax -6.5776657015262145 -0.37748681246385873 2.483986645141484
lowerneck -18.437156175662857 -2.656505801864385 -2.7323767212528955
upperneck 8.100817745006271 -2.5932357425992643 2.7714044701081173
head 5.350920034687645 -1.0975647735789515 1.260649918414481
lclavicle -2.320058295692455e-14 -5.1069004437792e-15
lhumerus -48.30582704782425 -1.7570643422396008 84.6047445759219
lradius 120.23517295132869
lwrist 35.4916172099606
lhand -25.735831001805433 1.568040174893202
lfingers nan
lthumb 1.337859199176256 31.813865429367276
rclavicle -2.086442591181196e-14 -6.692735904261572e-15
rhumerus -62.68445136738469 -2.1404800710963965 -90.00387415216238
rradius 112.55522635994488
rwrist -16.876211847198128
rhand -21.82941854118459 nan
rfingers nan
rthumb 4.264254013650108 13.66460440009866
84
root 0.7754930185706969 18.46484524214628 17.775218017824717 4.068262894117026 -7.302997619311194 -1.190892719464971
lfemur 10.66986476508939 -5.166423457427083 -26.966862945175844
ltibia 55.986854201639794
lfoot 29.455897342348443 -22.13596780022059
ltoes -15.69146582931305
rfemur -32.22769880791385 -3.478502068100893 28.55485839279263
rtibia 16.236121562635695
rfoot 8.864915694129396 -1.7115548692544138
rtoes -14.577819204980944
lowerback nan -1.3384568025217298 -0.5163693981428565
upperback 0.4792154158548999 0.5080104932003771 -0.21179388910696417
thorax -5.964114248705286 -0.34210716289586673 2.382449396069779
lowerneck -18.221690123824725 -2.64946422919265 -2.6973721822626553
upperneck 7.647867708323629 -2.6606547264864977 2.7748222985709923
head 5.186955949604823 -1.1085980652500091 1.2422724052149179
lclavicle -2.170258574737629e-14 -8.325315451405264e-15
lhumerus -48.365733761077585 -1.734466447201556 84.99939994784889
lradius 118.91537040639987
lwrist 35.61171185111751
lhand -26.164052839654794 2.784240885201089
lfingers nan
lthumb 0.8957734639153682 33.0162133789468
rclavicle -1.9340154839109067e-14 -9.848599307189808e-15
rhumerus -61.77415884724758 -2.1381930957279494 -90.13018305813696
rradius 112.32921330276666
rwrist -18.832891020565146
rhand -19.385302217107057 nan
rfingers nan
rthumb 6.5810018216052315 12.574954633568217
85
root 0.7774111600778711 18.38810448139684 18.559670531510193 4.092993585091615 -7.536648007380714 -1.9246531198655958
lfemur 8.82477835190647 -3.991200246729336 -25.3973153768644
ltibia 60.469583821788845
lfoot 29.67489702762821 -23.003170090505183
ltoes -15.15837799442614
rfemur -31.672558120244656 -2.6362489088123104 29.433955704818203
rtibia 17.51431174653046
rfoot 9.104032927625106 -0.0221141144255812
rtoes -11.679383626099796
lowerback nan -1.300564098576725 -0.04942710635718939
upperback 0.39456785788740534 0.7189600519194811 -0.03099624539288004
thorax -6.416004591984491 -0.24298137085984495 2.239218767586524
lowerneck -17.949314048624213 -2.657015032872857 -2.822287614709624
upperneck 7.636254132897422 -2.7053703631333006 3.0280037339433634
head 5.145948794430193 -1.1064128383527032 1.3149576895791146
lclavicle -3.466632769492422e-14 2.244535334674038e-15
lhumerus -48.56100058238986 -1.6473775467170135 85.4365682623321
lradius 117.50163889306211
lwrist 35.45715031741921
lhand -26.02555377267891 2.4778310541705157
lfingers nan
lthumb 1.0084684022270938 32.67702844137979
rclavicle -3.169361459686364e-14 5.56451046598229e-16
rhumerus -60.95104257564265 -1.9766519669794782 -90.41683157247658
rradius 112.07943495403764
rwrist -19.417760290685717
rhand -18.318879971466632 nan
rfingers nan
rthumb 7.598398055199569 12.600328378060986
86
root 0.7873408770744241 18.30234057105893 19.28989152201595 3.4100621414363124 -7.500289023638641 -1.8120907442035912
lfemur 8.216866158054145 -2.9073649621679323 -24.92853878253995
ltibia 64.42438163302802
lfoot 31.013824869825935 -22.332010789432637
ltoes -8.736103972340693
rfemur -30.341722812332137 -3.1502880058956797 29.390938438515867
rtibia 19.42516617315195
rfoot 8.25903588323749 4.17685970233034
rtoes 0.7997225298332791
lowerback nan -1.3265331291156484 -0.05552393173544612
upperback 0.5494414242287263 0.801803868627421 -0.11714943409990641
thorax -5.940733978328038 -0.22572371033696925 2.1414713955454734
lowerneck -17.304227948319046 -2.686176390218092 -2.8217795831785706
upperneck 7.552342986527606 -2.8360138297419115 3.091864208626871
head 5.0214618160875775 -1.1501926221454535 1.3138402359109365
lclavicle -2.0425758456391246e-14 1.0590278910858972e-14
lhumerus -48.97678515088778 -1.6739971988430353 85.85096456644588
lradius 115.91528729256086
lwrist 35.1519093520097
lhand -26.555707523142154 -0.43090641017029885
lfingers nan
lthumb 0.40959164557531835 29.6755895809847
rclavicle -1.7560191169706075e-14 8.696604572237217e-15
rhumerus -60.28845845024351 -1.8250295283632383 -90.95898789453415
rradius 111.74615184835767
rwrist -19.02586765880943
rhand -18.553982033280935 nan
rfingers nan
rthumb 7.347965056502352 12.75191068005152
87
root 0.7891841938831003 18.221432268588355 19.990167328232957 3.0774082318945934 -7.705542940350194 -1.8175114124561396
lfemur 6.903952354761827 -1.6251196885311945 -24.129631448704973
ltibia 68.64166914653674
lfoot 32.43376937078722 -21.743671879361685
ltoes -4.540948546528329
rfemur -29.564355094433274 -2.7526324607701 29.26009783994377
rtibia 21.789076404375827
rfoot 5.9275337397742325 6.455078139841294
rtoes 7.336465959872095
lowerback nan -1.2427814280929952 -0.05055962870805275
upperback 0.33021468981973545 1.022129359553094 -0.17181836539069018
thorax -6.625467630681744 -0.11815798885689477 1.9902858171464952
lowerneck -15.914130384481744 -2.730877759323771 -2.689131613733998
upperneck 7.087460846312116 -2.9685932634146934 2.990042953273604
head 4.656819041837407 -1.225512685123662 1.2488144434507231
lclavicle -1.5105171317381647e-14 -9.713642211549155e-15
lhumerus -49.76830339800526 -1.8253910062382648 86.2389533481239
lradius 114.62564368200336
lwrist 34.9205470845948
lhand -26.971145107190875 -1.3196348908236368
lfingers nan
lthumb -0.050024874887312665 28.71412604784597
rclavicle -1.2135268298237583e-14 -1.1613291834959972e-14
rhumerus -59.704034659769206 -1.6388180036894884 -91.64110078123551
rradius 111.20722831853813
rwrist -18.199169570333986
rhand -19.208386083798143 nan
rfingers nan
rthumb 6.6590931919805385 12.638267662887888
88
root 0.7975021555903357 18.140833286159143 20.78798849451069 2.872398400175666 -7.567232380187218 -1.7170408168599702
lfemur 5.586327604549588 -0.588127369791172 -23.41811251683341
ltibia 72.72937560001513
lfoot 32.47577850733262 -20.20002894443695
ltoes -1.1814180344026202
rfemur -29.02303631216229 -2.5917546689921713 28.918957370114864
rtibia 24.837319164494012
rfoot 1.8404010716919732 5.525330213947413
rtoes 7.9269073560146435
lowerback nan -1.2553037121125494 -0.06485964455093818
upperback 0.13237317326230857 1.1161340621662101 -0.23749858299792104
thorax -7.211120357614105 -0.09014205416691823 1.913955239293833
lowerneck -14.97898826415962 -2.830857514948776 -2.6971504385316103
upperneck 6.939428255216113 -3.10957654030796 3.078090737069584
head 4.489743597981427 -1.297270601155938 1.250638812028991
lclavicle -2.2603046473009112e-14 -1.0310265573412149e-15
lhumerus -50.39505031859276 -1.870533747655565 86.52345027250799
lradius 113.41704835907997
lwrist 34.725289459175094
lhand -26.911775066441102 -0.37359975405134316
lfingers nan
lthumb -0.04659347338085329 29.606108206755025
rclavicle -1.921888467232462e-14 -2.90033129660116e-15
rhumerus -58.85688726469169 -1.1388863059950456 -92.44208135880508
rradius 110.78512188261553
rwrist -17.13107153909698
rhand -20.60057909495582 nan
rfingers nan
rthumb 5.281685305910141 12.23948456172598
89
root 0.7927497284632327 18.063583098452344 21.375574455550318 2.7344860713440218 -7.379009209538509 -1.6951748558194164
lfemur 3.915032273411427 0.5433212780174712 -22.417071944747082
ltibia 77.02195602340876
lfoot 31.111610305808274 -18.15769434544136
ltoes 1.0182313380484622
rfemur -28.60742585583151 -2.0680709843406153 28.650693572148118
rtibia 27.917072894657675
rfoot -2.182871688027097 2.9638780140126677
rtoes 5.497033043794263
lowerback nan -1.3022301675060688 -0.15177053565904686
upperback 0.19079947558236643 1.1494510604689934 -0.23413688430600565
thorax -7.1781302570395065 -0.09483885478546206 1.9493808451766608
lowerneck -15.18367448074352 -2.958591822587195 -2.752653373491534
upperneck 7.138807128697691 -3.2128699009931583 3.17770606335299
head 4.638190366020889 -1.340105951342513 1.2686150532263258
lclavicle 4.3661244501009435e-15 9.49721469949695e-15
lhumerus -50.38623796586341 -1.8535266812540971 86.784403114772
lradius 112.0126314416661
lwrist 34.260483815289035
lhand -26.609426579855747 0.10004670317771902
lfingers nan
lthumb 0.19129387031672818 30.020241470983002
rclavicle 7.594114922108385e-15 7.516219084501084e-15
rhumerus -57.484643300290614 -0.46105475890705705 -93.01245961671631
rradius 110.54123474821921
rwrist -17.752055222778502
rhand -20.483372287574554 nan
rfingers nan
rthumb 5.3685820947866265 11.749879222087632
